STARTFONT 2.1
FONT -WRI-Mathematica3-Bold-R-Normal--16-160-75-75-p-90-Adobe-FontSpecific
SIZE 16 75 75
FONTBOUNDINGBOX 20 18 -2 -4
STARTPROPERTIES 16
FOUNDRY "WRI"
FAMILY_NAME "Mathematica3"
WEIGHT_NAME "Bold"
SLANT "R"
SETWIDTH_NAME "Normal"
PIXEL_SIZE 16
POINT_SIZE 160
RESOLUTION_X 75
RESOLUTION_Y 75
SPACING "p"
AVERAGE_WIDTH 90
CHARSET_REGISTRY "Adobe"
CHARSET_ENCODING "FontSpecific"
FONT_DESCENT 4
FONT_ASCENT 14
DEFAULT_CHAR 32
ENDPROPERTIES
CHARS 224
STARTCHAR Space
ENCODING 32
SWIDTH 189 0
DWIDTH 3 0
BBX 0 0 0 0
BITMAP
ENDCHAR
STARTCHAR Integral
ENCODING 33
SWIDTH 323 0
DWIDTH 5 0
BBX 8 15 1 -1
BITMAP
06
0b
18
18
18
18
18
18
18
10
30
30
30
30
e0
ENDCHAR
STARTCHAR ContourIntegral
ENCODING 34
SWIDTH 323 0
DWIDTH 5 0
BBX 8 15 1 -1
BITMAP
06
0b
18
18
18
3c
5e
9a
9a
56
3c
30
30
30
e0
ENDCHAR
STARTCHAR DblContInteg
ENCODING 35
SWIDTH 605 0
DWIDTH 10 0
BBX 12 15 1 -1
BITMAP
0670
0bd0
18c0
1880
1880
3fc0
59a0
99a0
99a0
51a0
3fc0
3180
3100
3900
ef00
ENDCHAR
STARTCHAR CntrClckwContInteg
ENCODING 36
SWIDTH 329 0
DWIDTH 5 0
BBX 8 15 1 -1
BITMAP
06
0b
18
18
18
3c
5e
9a
9f
56
3c
30
30
30
e0
ENDCHAR
STARTCHAR ClckwContInteg
ENCODING 37
SWIDTH 329 0
DWIDTH 5 0
BBX 9 15 0 -1
BITMAP
0300
0580
0c00
0c00
0c00
3e00
2e00
6d00
ed00
2a00
3e00
1800
1800
1800
7000
ENDCHAR
STARTCHAR SquareContInteg
ENCODING 38
SWIDTH 323 0
DWIDTH 5 0
BBX 8 15 1 -1
BITMAP
06
0b
18
18
18
7e
5a
5a
5a
52
7e
30
30
30
e0
ENDCHAR
STARTCHAR Intersection
ENCODING 39
SWIDTH 694 0
DWIDTH 11 0
BBX 9 10 1 0
BITMAP
0800
3e00
6300
c180
c080
8080
8080
8080
8080
8080
ENDCHAR
STARTCHAR Union
ENCODING 40
SWIDTH 694 0
DWIDTH 11 0
BBX 9 9 1 0
BITMAP
8080
8080
8080
8080
8080
c180
c180
6300
3e00
ENDCHAR
STARTCHAR UnionPlus
ENCODING 41
SWIDTH 654 0
DWIDTH 10 0
BBX 9 9 1 0
BITMAP
8080
8080
8880
8880
be80
c980
c980
6300
3e00
ENDCHAR
STARTCHAR SquareIntersection
ENCODING 42
SWIDTH 694 0
DWIDTH 11 0
BBX 9 9 1 0
BITMAP
ff80
ff80
c180
c180
c180
c180
c180
c180
c180
ENDCHAR
STARTCHAR SquareUnion
ENCODING 43
SWIDTH 694 0
DWIDTH 11 0
BBX 9 9 1 0
BITMAP
c180
c180
c180
c180
c180
c180
c180
ff80
ff80
ENDCHAR
STARTCHAR Wedge
ENCODING 44
SWIDTH 704 0
DWIDTH 11 0
BBX 9 9 1 0
BITMAP
0800
1c00
1c00
3e00
3600
3600
6300
6300
c180
ENDCHAR
STARTCHAR SmallWedge
ENCODING 45
SWIDTH 660 0
DWIDTH 11 0
BBX 9 6 1 1
BITMAP
0800
1c00
3e00
3600
6300
e380
ENDCHAR
STARTCHAR Vee
ENCODING 46
SWIDTH 704 0
DWIDTH 11 0
BBX 9 9 1 0
BITMAP
c180
6300
6300
3600
3600
3e00
1c00
1c00
0800
ENDCHAR
STARTCHAR SmallVee
ENCODING 47
SWIDTH 660 0
DWIDTH 11 0
BBX 9 6 1 1
BITMAP
e380
6300
3600
3e00
1c00
0800
ENDCHAR
STARTCHAR LTriangle
ENCODING 48
SWIDTH 681 0
DWIDTH 11 0
BBX 9 9 1 0
BITMAP
0080
0380
0f80
7d80
f180
7d80
0f80
0380
0080
ENDCHAR
STARTCHAR LTriangleEqual
ENCODING 49
SWIDTH 676 0
DWIDTH 11 0
BBX 9 10 1 -1
BITMAP
0080
0780
3f80
f980
3f80
0780
0080
0000
ff80
ff80
ENDCHAR
STARTCHAR LTriangleBar
ENCODING 50
SWIDTH 838 0
DWIDTH 13 0
BBX 12 9 1 0
BITMAP
00b0
03b0
0fb0
7db0
f1b0
7db0
0fb0
03b0
00b0
ENDCHAR
STARTCHAR NotLTriangle
ENCODING 51
SWIDTH 681 0
DWIDTH 11 0
BBX 9 11 1 -1
BITMAP
0600
0680
0f80
0f80
7d80
fd80
7d80
0f80
1b80
1880
1800
ENDCHAR
STARTCHAR NotLTriangleEqual
ENCODING 52
SWIDTH 677 0
DWIDTH 11 0
BBX 9 12 1 -2
BITMAP
0600
0680
0f80
3f80
f580
3f80
1f80
1880
1800
ff80
ff80
3000
ENDCHAR
STARTCHAR NotLTriangleBar
ENCODING 53
SWIDTH 838 0
DWIDTH 13 0
BBX 11 13 1 -2
BITMAP
0100
0300
02a0
0320
0f20
7f20
c520
7d20
0f20
0f20
0920
0800
0800
ENDCHAR
STARTCHAR Bar
ENCODING 54
SWIDTH 240 0
DWIDTH 4 0
BBX 2 11 1 0
BITMAP
c0
c0
c0
c0
c0
c0
c0
c0
c0
c0
c0
ENDCHAR
STARTCHAR Parallel
ENCODING 55
SWIDTH 478 0
DWIDTH 8 0
BBX 5 11 1 0
BITMAP
d8
d8
d8
d8
d8
d8
d8
d8
d8
d8
d8
ENDCHAR
STARTCHAR TrplBar
ENCODING 56
SWIDTH 722 0
DWIDTH 12 0
BBX 8 11 1 0
BITMAP
db
db
db
db
db
db
db
db
db
db
db
ENDCHAR
STARTCHAR ShortBar
ENCODING 57
SWIDTH 240 0
DWIDTH 4 0
BBX 2 8 1 0
BITMAP
c0
c0
c0
c0
c0
c0
c0
c0
ENDCHAR
STARTCHAR ShortParallelBar
ENCODING 58
SWIDTH 478 0
DWIDTH 8 0
BBX 5 8 1 0
BITMAP
d8
d8
d8
d8
d8
d8
d8
d8
ENDCHAR
STARTCHAR BarExt
ENCODING 59
SWIDTH 240 0
DWIDTH 4 0
BBX 2 3 1 0
BITMAP
c0
c0
c0
ENDCHAR
STARTCHAR Tangental
ENCODING 60
SWIDTH 574 0
DWIDTH 9 0
BBX 8 11 0 0
BITMAP
33
33
33
66
66
66
66
66
cc
cc
cc
ENDCHAR
STARTCHAR NotTildeFullEqual
ENCODING 61
SWIDTH 675 0
DWIDTH 11 0
BBX 9 12 1 -3
BITMAP
0600
7480
dd00
8f00
0c00
ff80
ff80
1800
ff80
ff80
1000
3000
ENDCHAR
STARTCHAR TildeEqual
ENCODING 62
SWIDTH 675 0
DWIDTH 11 0
BBX 9 6 1 1
BITMAP
7080
dd00
8f00
0000
ff80
ff80
ENDCHAR
STARTCHAR EqualTilde
ENCODING 63
SWIDTH 675 0
DWIDTH 11 0
BBX 9 6 1 0
BITMAP
ff80
0000
0000
7880
9f00
8700
ENDCHAR
STARTCHAR RTriangle
ENCODING 64
SWIDTH 681 0
DWIDTH 11 0
BBX 9 9 1 0
BITMAP
8000
e000
f800
df00
c780
df00
f800
e000
8000
ENDCHAR
STARTCHAR RTriangleEqual
ENCODING 65
SWIDTH 676 0
DWIDTH 11 0
BBX 9 10 1 -1
BITMAP
8000
f000
fe00
cf80
fe00
f000
8000
0000
ff80
ff80
ENDCHAR
STARTCHAR RTriangleBar
ENCODING 66
SWIDTH 838 0
DWIDTH 13 0
BBX 11 9 1 0
BITMAP
d000
dc00
df00
dfc0
d9e0
dfc0
df00
dc00
d000
ENDCHAR
STARTCHAR NotRTriangle
ENCODING 67
SWIDTH 681 0
DWIDTH 11 0
BBX 9 11 1 -1
BITMAP
0c00
8c00
fc00
f800
df00
df80
df00
f800
f800
b000
3000
ENDCHAR
STARTCHAR NotRTriangleEqual
ENCODING 68
SWIDTH 676 0
DWIDTH 11 0
BBX 9 12 1 -2
BITMAP
0c00
8c00
fc00
fe00
d380
fe00
f800
9800
1800
ff80
ff80
3000
ENDCHAR
STARTCHAR NotRTriangleBar
ENCODING 69
SWIDTH 838 0
DWIDTH 13 0
BBX 11 12 0 -2
BITMAP
0600
d600
de00
df00
dfc0
dde0
dfc0
df00
dc00
d800
1800
1800
ENDCHAR
STARTCHAR NotBar
ENCODING 70
SWIDTH 531 0
DWIDTH 9 0
BBX 8 11 0 0
BITMAP
18
18
1f
1e
1c
18
38
78
f8
18
18
ENDCHAR
STARTCHAR NotParallelBar
ENCODING 71
SWIDTH 753 0
DWIDTH 12 0
BBX 11 11 0 0
BITMAP
1b00
1be0
1bc0
1b80
1f00
1f00
1f00
3b00
7b00
fb00
1b00
ENDCHAR
STARTCHAR NotTrplBar
ENCODING 72
SWIDTH 806 0
DWIDTH 13 0
BBX 12 11 1 0
BITMAP
4470
4460
44c0
45c0
4740
4640
4c40
5c40
7440
6440
c440
ENDCHAR
STARTCHAR ShortNotBar
ENCODING 73
SWIDTH 511 0
DWIDTH 8 0
BBX 8 8 0 0
BITMAP
18
1f
1e
1c
38
78
f8
18
ENDCHAR
STARTCHAR ShortNotParallelBar
ENCODING 74
SWIDTH 598 0
DWIDTH 10 0
BBX 9 7 0 0
BITMAP
3380
3700
3e00
3e00
3a00
7200
f200
ENDCHAR
STARTCHAR ParallelExt
ENCODING 75
SWIDTH 478 0
DWIDTH 8 0
BBX 5 2 1 0
BITMAP
d8
d8
ENDCHAR
STARTCHAR NotTilde
ENCODING 76
SWIDTH 667 0
DWIDTH 11 0
BBX 9 8 1 0
BITMAP
0400
0400
3c80
7880
8f00
1800
1800
1000
ENDCHAR
STARTCHAR NotTildeTilde
ENCODING 77
SWIDTH 667 0
DWIDTH 11 0
BBX 9 11 1 -2
BITMAP
0600
0600
7480
dd00
8f00
0c00
7880
9f00
1e00
1000
1000
ENDCHAR
STARTCHAR NotTildeEqual
ENCODING 78
SWIDTH 675 0
DWIDTH 11 0
BBX 9 10 1 -1
BITMAP
0600
0600
7480
dd00
8f00
0c00
ff80
ff80
1800
1000
ENDCHAR
STARTCHAR NotEqualTilde
ENCODING 79
SWIDTH 675 0
DWIDTH 11 0
BBX 9 10 1 -1
BITMAP
0600
0600
0400
ff80
0c00
0c00
7880
9f00
9f00
1000
ENDCHAR
STARTCHAR HumpEqual
ENCODING 80
SWIDTH 677 0
DWIDTH 11 0
BBX 9 7 1 1
BITMAP
1c00
ff80
e380
0000
0000
ff80
ff80
ENDCHAR
STARTCHAR HumpDownHump
ENCODING 81
SWIDTH 677 0
DWIDTH 11 0
BBX 9 8 1 0
BITMAP
1c00
ff80
e380
0000
0000
e380
ff80
1c00
ENDCHAR
STARTCHAR NotHumpEqual
ENCODING 82
SWIDTH 677 0
DWIDTH 11 0
BBX 9 11 1 -1
BITMAP
0400
0400
1c00
ff80
eb80
0800
1800
ff80
ff80
3000
3000
ENDCHAR
STARTCHAR NotHumpDownHump
ENCODING 83
SWIDTH 677 0
DWIDTH 11 0
BBX 9 12 1 -2
BITMAP
0600
0400
1c00
ff80
ef80
0800
0800
fb80
ff80
1c00
1000
3000
ENDCHAR
STARTCHAR NotCongruent
ENCODING 84
SWIDTH 677 0
DWIDTH 11 0
BBX 9 12 1 -2
BITMAP
0600
ff80
ff80
0c00
0c00
ff80
ff80
1800
ff80
ff80
3000
3000
ENDCHAR
STARTCHAR DotEqual
ENCODING 85
SWIDTH 677 0
DWIDTH 11 0
BBX 9 10 1 1
BITMAP
0800
1c00
0000
0000
ff80
ff80
0000
0000
ff80
ff80
ENDCHAR
STARTCHAR RoundImplies
ENCODING 86
SWIDTH 657 0
DWIDTH 11 0
BBX 9 6 1 1
BITMAP
fe00
ff80
0180
0180
ff80
ff00
ENDCHAR
STARTCHAR Equal
ENCODING 87
SWIDTH 448 0
DWIDTH 7 0
BBX 6 6 1 1
BITMAP
fc
fc
00
00
fc
fc
ENDCHAR
STARTCHAR TrplEqual
ENCODING 88
SWIDTH 1078 0
DWIDTH 17 0
BBX 17 6 1 1
BITMAP
fbef80
fbef80
000000
000000
fbef80
fbef80
ENDCHAR
STARTCHAR FrownEqual
ENCODING 89
SWIDTH 690 0
DWIDTH 11 0
BBX 9 6 1 1
BITMAP
3e00
6300
8080
0000
ff80
ff80
ENDCHAR
STARTCHAR SmileEqual
ENCODING 90
SWIDTH 690 0
DWIDTH 11 0
BBX 9 6 1 1
BITMAP
ff80
ff80
0000
8080
6300
3e00
ENDCHAR
STARTCHAR Frown
ENCODING 91
SWIDTH 690 0
DWIDTH 11 0
BBX 9 3 1 2
BITMAP
3e00
4100
8080
ENDCHAR
STARTCHAR Smile
ENCODING 92
SWIDTH 690 0
DWIDTH 11 0
BBX 9 3 1 2
BITMAP
8080
7f00
1c00
ENDCHAR
STARTCHAR FrownSmile
ENCODING 93
SWIDTH 690 0
DWIDTH 11 0
BBX 9 8 1 0
BITMAP
3e00
7f00
8080
0000
0000
8080
7f00
1e00
ENDCHAR
STARTCHAR SmileFrown
ENCODING 94
SWIDTH 690 0
DWIDTH 11 0
BBX 9 8 1 0
BITMAP
8080
4100
3e00
0000
0000
3e00
4100
8080
ENDCHAR
STARTCHAR NotSmileFrown
ENCODING 95
SWIDTH 690 0
DWIDTH 11 0
BBX 9 12 1 -2
BITMAP
0600
0400
8480
4d00
3e00
0800
0800
3e00
5900
9080
1000
3000
ENDCHAR
STARTCHAR LessLess
ENCODING 96
SWIDTH 1071 0
DWIDTH 17 0
BBX 15 9 1 0
BITMAP
0082
038e
0f3c
7df0
f3c0
7df0
0f3c
038e
0082
ENDCHAR
STARTCHAR DblLess
ENCODING 97
SWIDTH 839 0
DWIDTH 13 0
BBX 11 11 1 -1
BITMAP
0020
00e0
07c0
1f20
7de0
f3c0
7de0
1f20
07c0
00e0
0020
ENDCHAR
STARTCHAR LessSlantEqual
ENCODING 98
SWIDTH 676 0
DWIDTH 11 0
BBX 9 11 1 -2
BITMAP
0080
0780
3f00
f800
3f00
8780
e080
7c00
1f00
0380
0080
ENDCHAR
STARTCHAR LessFullEqual
ENCODING 99
SWIDTH 677 0
DWIDTH 11 0
BBX 9 13 1 -3
BITMAP
0080
0780
3f00
f800
3f00
0780
0080
0000
ff80
ff80
0000
ff80
ff80
ENDCHAR
STARTCHAR LessTilde
ENCODING 100
SWIDTH 676 0
DWIDTH 11 0
BBX 9 10 1 -1
BITMAP
0080
0780
3c00
f000
7800
0f00
0180
7000
7d80
8f00
ENDCHAR
STARTCHAR NotLess
ENCODING 101
SWIDTH 681 0
DWIDTH 11 0
BBX 9 11 1 -1
BITMAP
0600
0680
0780
0f00
7c00
fc00
7c00
0f00
1f80
1880
1800
ENDCHAR
STARTCHAR NotLessLess
ENCODING 102
SWIDTH 1071 0
DWIDTH 17 0
BBX 15 12 1 -2
BITMAP
00c0
00c0
0386
0f9c
3df0
e3c0
71c0
1d70
071e
0386
0200
0600
ENDCHAR
STARTCHAR NotDblLess
ENCODING 103
SWIDTH 839 0
DWIDTH 13 0
BBX 11 12 1 -2
BITMAP
0320
03e0
07c0
1f20
7ee0
ffc0
7ce0
1f20
0fc0
0ce0
1820
1800
ENDCHAR
STARTCHAR NotLessEqual
ENCODING 104
SWIDTH 677 0
DWIDTH 11 0
BBX 9 12 1 -2
BITMAP
0600
0680
0f80
3f00
f400
3f00
1f80
1880
1800
ff80
ff80
3000
ENDCHAR
STARTCHAR NotLessSlantEqual
ENCODING 105
SWIDTH 676 0
DWIDTH 11 0
BBX 9 12 1 -2
BITMAP
0600
0680
0f80
3f00
f400
3f00
1f80
f880
fe00
1f80
3180
3000
ENDCHAR
STARTCHAR NotLessFullEqual
ENCODING 106
SWIDTH 677 0
DWIDTH 11 0
BBX 9 14 1 -3
BITMAP
0600
0680
0f80
3f00
f400
3f00
0f80
1880
1800
ff80
ff80
1800
ff80
ff80
ENDCHAR
STARTCHAR NotLessTilde
ENCODING 107
SWIDTH 676 0
DWIDTH 11 0
BBX 9 12 1 -2
BITMAP
0200
0680
0780
3c00
f400
7c00
0f00
0980
7800
7d80
9f00
1000
ENDCHAR
STARTCHAR SquareSubset
ENCODING 108
SWIDTH 673 0
DWIDTH 11 0
BBX 9 9 1 -1
BITMAP
ff80
ff80
c000
c000
c000
c000
c000
ff80
ff80
ENDCHAR
STARTCHAR SquareSubsetEqual
ENCODING 109
SWIDTH 673 0
DWIDTH 11 0
BBX 9 12 1 -2
BITMAP
ff80
ff80
c000
c000
c000
c000
c000
ff80
ff80
0000
ff80
ff80
ENDCHAR
STARTCHAR NotSquareSubset
ENCODING 110
SWIDTH 673 0
DWIDTH 11 0
BBX 9 13 1 -2
BITMAP
0600
0600
ff80
ff80
cc00
cc00
dc00
d800
d800
ff80
ff80
3000
3000
ENDCHAR
STARTCHAR NotSqrSubsetEqual
ENCODING 111
SWIDTH 673 0
DWIDTH 11 0
BBX 9 16 1 -4
BITMAP
0300
0300
ff80
ff80
c600
c600
cc00
cc00
cc00
ff80
ff80
1800
ff80
ff80
3000
3000
ENDCHAR
STARTCHAR GrtrGrtr
ENCODING 112
SWIDTH 1071 0
DWIDTH 17 0
BBX 15 9 1 0
BITMAP
8200
e380
79e0
1f7c
079e
1f7c
79e0
e380
8200
ENDCHAR
STARTCHAR DblGrtr
ENCODING 113
SWIDTH 839 0
DWIDTH 13 0
BBX 11 11 1 -1
BITMAP
8000
e000
7c00
9f00
f7c0
78e0
f7c0
9f00
7c00
e000
8000
ENDCHAR
STARTCHAR GrtrSlantEqual
ENCODING 114
SWIDTH 676 0
DWIDTH 11 0
BBX 9 11 1 -2
BITMAP
8000
f000
7e00
0f80
7e00
f000
8180
0f80
7e00
f000
8000
ENDCHAR
STARTCHAR GrtrFullEqual
ENCODING 115
SWIDTH 677 0
DWIDTH 11 0
BBX 9 13 1 -3
BITMAP
8000
f000
7e00
0f80
7e00
f000
8000
0000
ff80
ff80
0000
ff80
ff80
ENDCHAR
STARTCHAR GrtrTilde
ENCODING 116
SWIDTH 676 0
DWIDTH 11 0
BBX 9 10 1 -1
BITMAP
8000
f000
7e00
0f80
7e00
f000
b080
7c80
cf80
0700
ENDCHAR
STARTCHAR NotGrtr
ENCODING 117
SWIDTH 681 0
DWIDTH 11 0
BBX 9 11 1 -1
BITMAP
0c00
8c00
ec00
7800
1f00
1f80
1f00
7800
f800
b000
3000
ENDCHAR
STARTCHAR NotGrtrGrtr
ENCODING 118
SWIDTH 1071 0
DWIDTH 17 0
BBX 15 12 1 -2
BITMAP
00c0
02c0
c380
79e0
1fb8
078e
071e
1d70
73c0
c300
0200
0200
ENDCHAR
STARTCHAR NotDblGrtr
ENCODING 119
SWIDTH 839 0
DWIDTH 13 0
BBX 11 12 1 -2
BITMAP
0300
c300
7a00
1e00
e7c0
7ee0
7de0
c780
1c00
f800
c800
0800
ENDCHAR
STARTCHAR NotGrtrEqual
ENCODING 120
SWIDTH 677 0
DWIDTH 11 0
BBX 9 12 1 -2
BITMAP
0600
8600
fc00
7e00
1380
7e00
f800
9800
1800
ff80
ff80
3000
ENDCHAR
STARTCHAR NotGrtrSlantEqual
ENCODING 121
SWIDTH 676 0
DWIDTH 11 0
BBX 9 12 1 -2
BITMAP
0600
8600
fc00
7e00
1380
7e00
f800
9b80
3f80
fc00
f000
3000
ENDCHAR
STARTCHAR NotGrtrFullEqual
ENCODING 122
SWIDTH 677 0
DWIDTH 11 0
BBX 9 14 1 -3
BITMAP
0600
8e00
fc00
7e00
1380
7e00
f800
9800
1800
ff80
ff80
3000
ff80
ff80
ENDCHAR
STARTCHAR NotGrtrTilde
ENCODING 123
SWIDTH 676 0
DWIDTH 11 0
BBX 9 12 1 -2
BITMAP
0400
8400
fc00
1e00
0f80
1f00
7800
d000
7080
7d00
bf00
2000
ENDCHAR
STARTCHAR SquareSprset
ENCODING 124
SWIDTH 676 0
DWIDTH 11 0
BBX 9 9 1 -1
BITMAP
ff80
ff80
0180
0180
0180
0180
0180
ff80
ff80
ENDCHAR
STARTCHAR SquareSprsetEqual
ENCODING 125
SWIDTH 673 0
DWIDTH 11 0
BBX 9 12 1 -2
BITMAP
ff80
ff80
0180
0180
0180
0180
0180
ff80
ff80
0000
ff80
ff80
ENDCHAR
STARTCHAR NotSquareSprset
ENCODING 126
SWIDTH 673 0
DWIDTH 11 0
BBX 9 13 1 -3
BITMAP
0600
0400
ff80
ff80
8800
8800
9800
9800
9000
ff80
ff80
3000
2000
ENDCHAR
STARTCHAR DEL
ENCODING 127
SWIDTH 189 0
DWIDTH 3 0
BBX 0 0 0 0
BITMAP
ENDCHAR
STARTCHAR Prcds
ENCODING 128
SWIDTH 678 0
DWIDTH 11 0
BBX 9 10 1 -1
BITMAP
0080
0180
0700
1e00
f800
7c00
0e00
0380
0180
0080
ENDCHAR
STARTCHAR PrcdsEqual
ENCODING 129
SWIDTH 678 0
DWIDTH 11 0
BBX 9 11 1 -1
BITMAP
0080
0180
0700
7e00
fc00
0f00
0180
0080
0000
ff80
ff80
ENDCHAR
STARTCHAR PrcdsSlantEqual
ENCODING 130
SWIDTH 678 0
DWIDTH 11 0
BBX 9 11 1 -2
BITMAP
0180
0380
3e00
fc00
0f00
0380
f880
3e00
0700
0180
0080
ENDCHAR
STARTCHAR PrcdsTilde
ENCODING 131
SWIDTH 665 0
DWIDTH 11 0
BBX 9 11 1 -1
BITMAP
0080
0180
0700
3e00
f800
0e00
0380
0080
7000
7d00
8f00
ENDCHAR
STARTCHAR NotPrcds
ENCODING 132
SWIDTH 678 0
DWIDTH 11 0
BBX 9 12 1 -2
BITMAP
0600
0480
0580
0f00
1e00
f800
7c00
1e00
1b80
1180
1080
3000
ENDCHAR
STARTCHAR NotPrcdsEqual
ENCODING 133
SWIDTH 678 0
DWIDTH 11 0
BBX 9 13 1 -2
BITMAP
0600
0680
0580
0780
7e00
fc00
0f00
1980
1880
1000
ff80
ff80
3000
ENDCHAR
STARTCHAR NotPrcdsSlantEqual
ENCODING 134
SWIDTH 678 0
DWIDTH 11 0
BBX 9 13 1 -2
BITMAP
0600
0600
0580
0780
3e00
fc00
0f00
1b80
f880
3e00
1700
3180
3080
ENDCHAR
STARTCHAR NotPrcdsTilde
ENCODING 135
SWIDTH 665 0
DWIDTH 11 0
BBX 9 13 1 -2
BITMAP
0600
0680
0580
0700
3e00
f800
0f00
1b80
1880
7000
7d00
bf00
3000
ENDCHAR
STARTCHAR LessGrtr
ENCODING 136
SWIDTH 682 0
DWIDTH 11 0
BBX 9 12 1 -2
BITMAP
0380
0f00
7800
f000
1e00
c780
7880
1e00
0380
1e00
f000
8000
ENDCHAR
STARTCHAR NotLessGrtr
ENCODING 137
SWIDTH 682 0
DWIDTH 11 0
BBX 9 14 1 -3
BITMAP
0200
0780
0f00
7c00
fc00
1e00
cf80
7880
1e00
1b80
1e00
f000
b000
2000
ENDCHAR
STARTCHAR LessEqualGrtr
ENCODING 138
SWIDTH 676 0
DWIDTH 11 0
BBX 9 17 1 -4
BITMAP
0080
0780
3e00
f000
7800
0f00
0380
0000
ff80
ff80
8000
e000
3c00
0f80
0f00
3c00
e000
ENDCHAR
STARTCHAR Because
ENCODING 139
SWIDTH 629 0
DWIDTH 10 0
BBX 8 8 1 0
BITMAP
c3
c3
00
00
00
00
18
18
ENDCHAR
STARTCHAR NotSqrSprsetEqual
ENCODING 140
SWIDTH 673 0
DWIDTH 11 0
BBX 9 15 1 -4
BITMAP
0600
0600
ff80
0580
0d80
0d80
0980
0980
1980
ff80
1000
3000
ff80
2000
2000
ENDCHAR
STARTCHAR NotSubsetEqual
ENCODING 141
SWIDTH 697 0
DWIDTH 11 0
BBX 9 15 1 -4
BITMAP
0200
0200
3f80
6600
c400
c400
8c00
c800
6800
3f80
1800
1000
ff80
3000
3000
ENDCHAR
STARTCHAR NotSprset
ENCODING 142
SWIDTH 697 0
DWIDTH 11 0
BBX 9 13 1 -3
BITMAP
0200
0600
fe00
ff00
0580
0c80
0880
0980
1980
ff00
fc00
1000
3000
ENDCHAR
STARTCHAR NotSprsetEqual
ENCODING 143
SWIDTH 697 0
DWIDTH 11 0
BBX 9 15 1 -4
BITMAP
0200
0200
fe00
0700
0580
0c80
0c80
0980
0b00
ff00
1800
1000
ff80
3000
3000
ENDCHAR
STARTCHAR Succds
ENCODING 144
SWIDTH 678 0
DWIDTH 11 0
BBX 9 10 1 -1
BITMAP
8000
c000
6000
3c00
0f80
1f00
7800
e000
c000
8000
ENDCHAR
STARTCHAR SuccdsEqual
ENCODING 145
SWIDTH 678 0
DWIDTH 11 0
BBX 9 11 1 -1
BITMAP
8000
c000
f000
3f00
1f80
7000
c000
8000
0000
ff80
ff80
ENDCHAR
STARTCHAR SuccdsSlantEqual
ENCODING 146
SWIDTH 678 0
DWIDTH 11 0
BBX 9 11 1 -2
BITMAP
c000
e000
3c00
1f80
7800
e000
8f80
3c00
6000
c000
8000
ENDCHAR
STARTCHAR SuccdsTilde
ENCODING 147
SWIDTH 678 0
DWIDTH 11 0
BBX 9 10 1 -1
BITMAP
8000
e000
3c00
1f80
7800
e000
8000
7080
7d00
8f00
ENDCHAR
STARTCHAR NotSuccds
ENCODING 148
SWIDTH 678 0
DWIDTH 11 0
BBX 9 12 1 -2
BITMAP
0600
8400
c400
6c00
3c00
0f80
1f00
7800
f800
d000
9000
3000
ENDCHAR
STARTCHAR NotSuccdsEqual
ENCODING 149
SWIDTH 678 0
DWIDTH 11 0
BBX 9 13 1 -2
BITMAP
0600
0400
c400
f400
3e00
1f80
7800
d800
9800
1000
ff80
ff80
3000
ENDCHAR
STARTCHAR NotSuccdsSlantEqual
ENCODING 150
SWIDTH 678 0
DWIDTH 11 0
BBX 9 14 1 -3
BITMAP
0200
0600
c400
e400
3c00
1f80
7800
c800
9f80
3c00
f000
d000
b000
2000
ENDCHAR
STARTCHAR NotSuccdsTilde
ENCODING 151
SWIDTH 678 0
DWIDTH 11 0
BBX 9 13 1 -2
BITMAP
0200
0600
8400
e400
3c00
1f80
7800
e800
9800
7880
7900
9f00
3000
ENDCHAR
STARTCHAR GrtrLess
ENCODING 152
SWIDTH 682 0
DWIDTH 11 0
BBX 9 12 1 -2
BITMAP
e000
7800
0f00
0780
3c00
f180
8f00
7c00
e000
3c00
0780
0180
ENDCHAR
STARTCHAR NotGrtrLess
ENCODING 153
SWIDTH 682 0
DWIDTH 11 0
BBX 9 14 1 -3
BITMAP
0600
e600
7c00
0f00
0f80
3c00
f980
8f00
7c00
f000
3c00
3780
3180
2000
ENDCHAR
STARTCHAR GrtrEqualLess
ENCODING 154
SWIDTH 676 0
DWIDTH 11 0
BBX 9 17 1 -4
BITMAP
8000
f000
3c00
0780
0f00
7800
c000
0000
ff80
ff80
0080
0380
1e00
f000
f800
1e00
0380
ENDCHAR
STARTCHAR Proportion
ENCODING 155
SWIDTH 629 0
DWIDTH 10 0
BBX 8 8 1 0
BITMAP
c3
c3
00
00
00
00
c3
c3
ENDCHAR
STARTCHAR Member
ENCODING 156
SWIDTH 697 0
DWIDTH 11 0
BBX 9 9 1 -1
BITMAP
fe00
ff00
0180
0080
ff80
0180
0180
ff00
fc00
ENDCHAR
STARTCHAR NotMember
ENCODING 157
SWIDTH 697 0
DWIDTH 11 0
BBX 9 13 1 -3
BITMAP
0600
0400
fe00
ff00
0d80
0880
ff80
1980
1980
ff00
fc00
3000
3000
ENDCHAR
STARTCHAR CircleMinus
ENCODING 158
SWIDTH 835 0
DWIDTH 13 0
BBX 11 11 1 -1
BITMAP
1f00
3f80
71c0
e0e0
c060
ffe0
ffe0
c060
60c0
3f80
1f00
ENDCHAR
STARTCHAR CircleDot
ENCODING 159
SWIDTH 835 0
DWIDTH 13 0
BBX 11 11 1 -1
BITMAP
1f00
3f80
71c0
e0e0
cc60
cc60
c060
e0e0
71c0
3f80
1f00
ENDCHAR
STARTCHAR EqualParallel
ENCODING 160
SWIDTH 765 0
DWIDTH 12 0
BBX 9 10 1 -1
BITMAP
3600
3600
ff80
ff80
3600
3600
ff80
ff80
3600
3600
ENDCHAR
STARTCHAR MinusPlus
ENCODING 161
SWIDTH 683 0
DWIDTH 11 0
BBX 10 11 1 -1
BITMAP
ffc0
ffc0
0000
0c00
0c00
0c00
ffc0
ffc0
0c00
0c00
0c00
ENDCHAR
STARTCHAR RTack
ENCODING 162
SWIDTH 487 0
DWIDTH 8 0
BBX 6 9 1 0
BITMAP
c0
c0
c0
c0
fc
fc
c0
c0
c0
ENDCHAR
STARTCHAR DblRTack
ENCODING 163
SWIDTH 487 0
DWIDTH 8 0
BBX 6 9 1 0
BITMAP
c0
c0
fc
fc
c0
fc
fc
c0
c0
ENDCHAR
STARTCHAR LTack
ENCODING 164
SWIDTH 487 0
DWIDTH 8 0
BBX 6 9 1 0
BITMAP
0c
0c
0c
0c
fc
fc
0c
0c
0c
ENDCHAR
STARTCHAR DblLTack
ENCODING 165
SWIDTH 487 0
DWIDTH 8 0
BBX 6 9 1 0
BITMAP
0c
0c
fc
fc
0c
fc
fc
0c
0c
ENDCHAR
STARTCHAR UpTee
ENCODING 166
SWIDTH 680 0
DWIDTH 11 0
BBX 9 6 1 1
BITMAP
0c00
0c00
0c00
0c00
ff80
ff80
ENDCHAR
STARTCHAR DownTee
ENCODING 167
SWIDTH 680 0
DWIDTH 11 0
BBX 9 6 1 1
BITMAP
ff80
ff80
0c00
0c00
0c00
0c00
ENDCHAR
STARTCHAR DownTeeLong
ENCODING 168
SWIDTH 752 0
DWIDTH 12 0
BBX 10 9 1 0
BITMAP
ffc0
ffc0
0c00
0c00
0c00
0c00
0c00
0c00
0c00
ENDCHAR
STARTCHAR Between
ENCODING 169
SWIDTH 450 0
DWIDTH 7 0
BBX 5 14 1 -3
BITMAP
48
30
70
50
d8
d8
d8
d8
d8
d8
50
70
20
58
ENDCHAR
STARTCHAR VertTilde
ENCODING 170
SWIDTH 305 0
DWIDTH 5 0
BBX 3 9 1 0
BITMAP
40
60
20
60
40
c0
80
c0
60
ENDCHAR
STARTCHAR HorizHourglass
ENCODING 171
SWIDTH 600 0
DWIDTH 10 0
BBX 9 7 0 1
BITMAP
8080
c180
f780
dd80
f780
c180
8080
ENDCHAR
STARTCHAR RightAngle
ENCODING 172
SWIDTH 505 0
DWIDTH 8 0
BBX 6 9 1 0
BITMAP
c0
c0
c0
c0
c0
f0
f0
fc
fc
ENDCHAR
STARTCHAR MeasuredAngle
ENCODING 173
SWIDTH 512 0
DWIDTH 8 0
BBX 6 9 1 0
BITMAP
30
30
70
60
70
78
68
fc
fc
ENDCHAR
STARTCHAR SphericalAngle
ENCODING 174
SWIDTH 555 0
DWIDTH 9 0
BBX 7 9 1 -1
BITMAP
02
06
1e
3c
e4
3c
1e
06
02
ENDCHAR
STARTCHAR Diameter
ENCODING 175
SWIDTH 737 0
DWIDTH 12 0
BBX 10 9 1 0
BITMAP
3f80
6180
c380
c6c0
8cc0
98c0
f080
6180
ff00
ENDCHAR
STARTCHAR Mho
ENCODING 176
SWIDTH 748 0
DWIDTH 12 0
BBX 12 11 0 0
BITMAP
79e0
f8f0
9090
30c0
3060
7060
7060
7060
3060
30c0
0f00
ENDCHAR
STARTCHAR NotExists
ENCODING 177
SWIDTH 627 0
DWIDTH 10 0
BBX 8 15 1 -2
BITMAP
06
04
ff
0f
0f
0b
0b
7f
1b
13
13
33
ff
20
60
ENDCHAR
STARTCHAR CapDigamma
ENCODING 178
SWIDTH 589 0
DWIDTH 9 0
BBX 9 11 0 0
BITMAP
ff80
3080
3080
3000
3000
3f00
3100
3000
3000
3000
7000
ENDCHAR
STARTCHAR CapStigma
ENCODING 179
SWIDTH 670 0
DWIDTH 11 0
BBX 10 14 0 -3
BITMAP
03c0
0fc0
1000
2000
6000
4000
4000
c000
7000
7c00
1e00
0600
0600
1c00
ENDCHAR
STARTCHAR CapKoppa
ENCODING 180
SWIDTH 637 0
DWIDTH 10 0
BBX 10 11 0 0
BITMAP
1e00
6180
6180
c0c0
c0c0
6cc0
6d80
3f00
0c00
0c00
0c00
ENDCHAR
STARTCHAR CapSampi
ENCODING 181
SWIDTH 718 0
DWIDTH 11 0
BBX 10 11 1 0
BITMAP
1e00
6300
4180
01c0
03c0
05c0
0ac0
15c0
2980
5180
be00
ENDCHAR
STARTCHAR CurlyEpsilon
ENCODING 182
SWIDTH 513 0
DWIDTH 8 0
BBX 8 7 0 0
BITMAP
3f
31
30
7c
e2
c2
7c
ENDCHAR
STARTCHAR FinalSigma
ENCODING 183
SWIDTH 539 0
DWIDTH 9 0
BBX 8 10 0 -3
BITMAP
1f
23
63
63
e3
e2
a4
98
f8
7c
ENDCHAR
STARTCHAR Digamma
ENCODING 184
SWIDTH 490 0
DWIDTH 8 0
BBX 7 10 0 -3
BITMAP
1e
30
60
7c
60
60
c0
c0
c0
80
ENDCHAR
STARTCHAR Stigma
ENCODING 185
SWIDTH 568 0
DWIDTH 9 0
BBX 9 10 0 -3
BITMAP
3f80
7f80
4000
c000
e000
7800
1e00
0600
0600
1c00
ENDCHAR
STARTCHAR Koppa
ENCODING 186
SWIDTH 495 0
DWIDTH 8 0
BBX 8 8 0 -1
BITMAP
3e
43
c3
c6
46
38
30
30
ENDCHAR
STARTCHAR Sampi
ENCODING 187
SWIDTH 440 0
DWIDTH 7 0
BBX 7 7 0 0
BITMAP
fc
8c
3e
54
6c
08
30
ENDCHAR
STARTCHAR Bet
ENCODING 188
SWIDTH 651 0
DWIDTH 10 0
BBX 10 11 0 0
BITMAP
7f80
7fc0
3f80
0080
0080
0080
0080
0080
7fc0
7fc0
ff80
ENDCHAR
STARTCHAR Gimel
ENCODING 189
SWIDTH 329 0
DWIDTH 5 0
BBX 5 11 0 0
BITMAP
70
78
38
10
10
10
08
08
78
78
f0
ENDCHAR
STARTCHAR Dalet
ENCODING 190
SWIDTH 549 0
DWIDTH 9 0
BBX 7 11 1 0
BITMAP
fe
fe
fe
02
02
02
02
02
02
02
02
ENDCHAR
STARTCHAR Aleph
ENCODING 191
SWIDTH 504 0
DWIDTH 8 0
BBX 8 7 0 0
BITMAP
73
1c
18
18
18
2c
ce
ENDCHAR
STARTCHAR CapYAcute
ENCODING 192
SWIDTH 754 0
DWIDTH 12 0
BBX 12 14 0 0
BITMAP
0080
0180
0200
fcf0
3040
3840
1880
0d00
0700
0600
0600
0600
0600
0f00
ENDCHAR
STARTCHAR YAcute
ENCODING 193
SWIDTH 552 0
DWIDTH 9 0
BBX 7 14 1 -3
BITMAP
04
0c
10
00
c2
64
64
34
38
18
10
10
b0
e0
ENDCHAR
STARTCHAR CapEth
ENCODING 194
SWIDTH 762 0
DWIDTH 12 0
BBX 12 11 0 0
BITMAP
fc00
3380
30e0
3060
3070
fc70
3070
3060
3060
30c0
7f00
ENDCHAR
STARTCHAR Eth
ENCODING 195
SWIDTH 539 0
DWIDTH 9 0
BBX 8 11 0 0
BITMAP
60
1e
7c
0e
36
63
63
e3
63
63
3e
ENDCHAR
STARTCHAR CapThorn
ENCODING 196
SWIDTH 596 0
DWIDTH 10 0
BBX 9 11 0 0
BITMAP
f800
3000
3e00
3380
3180
3180
3180
3700
3800
3000
7000
ENDCHAR
STARTCHAR Thorn
ENCODING 197
SWIDTH 541 0
DWIDTH 9 0
BBX 7 14 1 -3
BITMAP
40
c0
c0
c0
dc
e6
c6
c6
c6
c6
ec
d0
c0
c0
ENDCHAR
STARTCHAR CapLSlash
ENCODING 198
SWIDTH 643 0
DWIDTH 10 0
BBX 9 11 1 0
BITMAP
f800
6000
6800
6800
7000
6000
6000
e000
e000
6080
7f80
ENDCHAR
STARTCHAR LSlash
ENCODING 199
SWIDTH 397 0
DWIDTH 6 0
BBX 5 11 0 0
BITMAP
30
30
30
38
38
30
30
70
b0
30
30
ENDCHAR
STARTCHAR DownQuestion
ENCODING 200
SWIDTH 466 0
DWIDTH 7 0
BBX 6 10 1 -3
BITMAP
30
20
20
20
20
40
c0
cc
cc
f8
ENDCHAR
STARTCHAR Cent
ENCODING 201
SWIDTH 500 0
DWIDTH 8 0
BBX 8 11 0 -2
BITMAP
08
08
36
63
40
c0
60
62
3c
08
08
ENDCHAR
STARTCHAR Nbspace
ENCODING 202
SWIDTH 189 0
DWIDTH 3 0
BBX 0 0 0 0
BITMAP
ENDCHAR
STARTCHAR Sterling
ENCODING 203
SWIDTH 641 0
DWIDTH 10 0
BBX 8 11 1 0
BITMAP
0e
1b
33
30
30
7c
30
10
10
fb
fe
ENDCHAR
STARTCHAR DownExclamation
ENCODING 204
SWIDTH 333 0
DWIDTH 5 0
BBX 3 11 1 -4
BITMAP
60
40
00
40
40
40
60
60
e0
e0
40
ENDCHAR
STARTCHAR Section
ENCODING 205
SWIDTH 496 0
DWIDTH 8 0
BBX 6 13 1 -2
BITMAP
30
58
d8
60
78
9c
8c
c4
6c
38
58
e8
78
ENDCHAR
STARTCHAR Paragraph
ENCODING 206
SWIDTH 584 0
DWIDTH 9 0
BBX 7 14 1 -3
BITMAP
1e
6e
ca
ca
ca
ca
6a
1a
0a
0a
0a
0a
0a
0a
ENDCHAR
STARTCHAR Yen
ENCODING 207
SWIDTH 645 0
DWIDTH 10 0
BBX 10 11 0 0
BITMAP
f9c0
7180
3100
1900
1a00
3f80
0c00
3f80
0c00
0c00
0e00
ENDCHAR
STARTCHAR Micro
ENCODING 208
SWIDTH 555 0
DWIDTH 9 0
BBX 7 10 1 -3
BITMAP
8c
8c
8c
8c
8c
cc
f6
80
80
80
ENDCHAR
STARTCHAR HBar
ENCODING 209
SWIDTH 555 0
DWIDTH 9 0
BBX 7 11 1 0
BITMAP
30
30
3c
70
ee
76
66
64
cc
ce
ce
ENDCHAR
STARTCHAR DotlessI
ENCODING 210
SWIDTH 291 0
DWIDTH 5 0
BBX 4 7 0 0
BITMAP
e0
60
60
60
60
60
70
ENDCHAR
STARTCHAR ItalDotlessI
ENCODING 211
SWIDTH 268 0
DWIDTH 4 0
BBX 3 7 1 0
BITMAP
e0
60
c0
c0
c0
a0
c0
ENDCHAR
STARTCHAR DotlessJ
ENCODING 212
SWIDTH 295 0
DWIDTH 5 0
BBX 5 10 -1 -3
BITMAP
38
18
18
18
18
18
18
18
d8
f0
ENDCHAR
STARTCHAR ItalDotlessJ
ENCODING 213
SWIDTH 410 0
DWIDTH 7 0
BBX 7 10 -1 -3
BITMAP
0e
04
0c
0c
0c
08
18
18
d0
f0
ENDCHAR
STARTCHAR Dagger
ENCODING 214
SWIDTH 581 0
DWIDTH 9 0
BBX 8 13 1 -2
BITMAP
18
18
10
f7
df
10
18
18
10
10
10
10
10
ENDCHAR
STARTCHAR DoubleDagger
ENCODING 215
SWIDTH 513 0
DWIDTH 8 0
BBX 7 13 1 -2
BITMAP
30
30
30
ee
fe
10
30
30
10
fe
10
30
30
ENDCHAR
STARTCHAR Degree
ENCODING 216
SWIDTH 404 0
DWIDTH 6 0
BBX 5 5 1 6
BITMAP
f0
98
88
98
70
ENDCHAR
STARTCHAR Flat
ENCODING 217
SWIDTH 396 0
DWIDTH 6 0
BBX 5 12 1 0
BITMAP
80
80
80
80
e0
b8
98
98
98
b0
b0
e0
ENDCHAR
STARTCHAR Natural
ENCODING 218
SWIDTH 374 0
DWIDTH 6 0
BBX 4 14 1 -3
BITMAP
80
80
80
b0
f0
d0
90
90
90
b0
f0
d0
10
10
ENDCHAR
STARTCHAR Sharp
ENCODING 219
SWIDTH 419 0
DWIDTH 7 0
BBX 5 15 1 -3
BITMAP
10
d0
d0
d8
f8
f0
d0
d0
d0
d8
f8
f0
d0
d0
c0
ENDCHAR
STARTCHAR QuestionBox
ENCODING 220
SWIDTH 913 0
DWIDTH 15 0
BBX 12 12 1 0
BITMAP
fff0
c010
c790
cc90
c190
c310
c210
c010
c010
c210
c010
fff0
ENDCHAR
STARTCHAR ErrorIndicator
ENCODING 221
SWIDTH 868 0
DWIDTH 14 0
BBX 12 8 1 0
BITMAP
fff0
8010
8610
8b10
9910
9090
8010
fff0
ENDCHAR
STARTCHAR Angstrom
ENCODING 222
SWIDTH 609 0
DWIDTH 10 0
BBX 9 12 0 0
BITMAP
0800
1400
2400
1c00
0c00
1c00
1600
2600
3f00
4300
4380
8180
ENDCHAR
STARTCHAR LamdaSlash
ENCODING 223
SWIDTH 523 0
DWIDTH 8 0
BBX 8 11 0 0
BITMAP
30
18
0f
1c
2c
1c
2c
2c
4c
44
c7
ENDCHAR
STARTCHAR SolidSquare
ENCODING 224
SWIDTH 714 0
DWIDTH 11 0
BBX 9 9 1 0
BITMAP
ff80
ff80
ff80
ff80
ff80
ff80
ff80
ff80
ff80
ENDCHAR
STARTCHAR Square
ENCODING 225
SWIDTH 714 0
DWIDTH 11 0
BBX 9 9 1 0
BITMAP
ff80
8080
8080
8080
8080
8080
8080
8080
ff80
ENDCHAR
STARTCHAR MedSolidSquare
ENCODING 226
SWIDTH 519 0
DWIDTH 8 0
BBX 6 6 1 2
BITMAP
fc
fc
fc
fc
fc
fc
ENDCHAR
STARTCHAR MedEmptySquare
ENCODING 227
SWIDTH 519 0
DWIDTH 8 0
BBX 6 6 1 2
BITMAP
fc
84
84
84
84
fc
ENDCHAR
STARTCHAR SmallSolidSquare
ENCODING 228
SWIDTH 374 0
DWIDTH 6 0
BBX 4 4 1 3
BITMAP
f0
f0
f0
f0
ENDCHAR
STARTCHAR SmallEmptySquare
ENCODING 229
SWIDTH 374 0
DWIDTH 6 0
BBX 4 4 1 3
BITMAP
f0
90
90
f0
ENDCHAR
STARTCHAR SolidCircle
ENCODING 230
SWIDTH 759 0
DWIDTH 12 0
BBX 11 10 1 0
BITMAP
1f00
3f80
7fc0
ffe0
ffe0
ffe0
ffe0
7fc0
3f80
1f00
ENDCHAR
STARTCHAR Circle
ENCODING 231
SWIDTH 759 0
DWIDTH 12 0
BBX 11 10 1 1
BITMAP
1f00
2080
4040
8020
8020
8020
8020
4040
2080
1f00
ENDCHAR
STARTCHAR Bullet
ENCODING 232
SWIDTH 520 0
DWIDTH 8 0
BBX 7 6 1 2
BITMAP
38
fe
fe
fe
fe
38
ENDCHAR
STARTCHAR SmallCircle
ENCODING 233
SWIDTH 520 0
DWIDTH 8 0
BBX 7 7 1 1
BITMAP
38
44
82
82
82
44
38
ENDCHAR
STARTCHAR Dot
ENCODING 234
SWIDTH 354 0
DWIDTH 6 0
BBX 5 4 1 3
BITMAP
70
f8
f8
70
ENDCHAR
STARTCHAR OpenDot
ENCODING 235
SWIDTH 424 0
DWIDTH 7 0
BBX 5 5 1 3
BITMAP
70
88
88
88
70
ENDCHAR
STARTCHAR MedSolidDiamond
ENCODING 236
SWIDTH 744 0
DWIDTH 12 0
BBX 11 9 0 0
BITMAP
0400
0e00
3f80
7fc0
ffe0
7fc0
3f80
0e00
0400
ENDCHAR
STARTCHAR MedEmptyDiamond
ENCODING 237
SWIDTH 624 0
DWIDTH 10 0
BBX 9 9 1 0
BITMAP
0800
1c00
3600
6300
c180
6300
3600
1c00
0800
ENDCHAR
STARTCHAR SmallSolidDiamond
ENCODING 238
SWIDTH 512 0
DWIDTH 8 0
BBX 7 7 1 1
BITMAP
10
38
7c
fe
7c
38
10
ENDCHAR
STARTCHAR SmallEmptyDiamond
ENCODING 239
SWIDTH 512 0
DWIDTH 8 0
BBX 7 7 1 1
BITMAP
10
38
6c
c6
6c
38
10
ENDCHAR
STARTCHAR SolidRectangle
ENCODING 240
SWIDTH 528 0
DWIDTH 8 0
BBX 6 9 1 0
BITMAP
fc
fc
fc
fc
fc
fc
fc
fc
fc
ENDCHAR
STARTCHAR Rectangle
ENCODING 241
SWIDTH 528 0
DWIDTH 8 0
BBX 6 9 1 0
BITMAP
fc
84
84
84
84
84
84
84
fc
ENDCHAR
STARTCHAR SolidUpTriangle
ENCODING 242
SWIDTH 699 0
DWIDTH 11 0
BBX 9 9 1 0
BITMAP
0800
0800
1c00
1c00
3e00
3e00
7f00
7f00
ff80
ENDCHAR
STARTCHAR UpTriangle
ENCODING 243
SWIDTH 699 0
DWIDTH 11 0
BBX 9 9 1 0
BITMAP
0800
0800
1400
1400
2200
2200
4100
4100
ff80
ENDCHAR
STARTCHAR SolidDownTriangle
ENCODING 244
SWIDTH 699 0
DWIDTH 11 0
BBX 9 9 1 0
BITMAP
ff80
7f00
7f00
3e00
3e00
1c00
1c00
0800
0800
ENDCHAR
STARTCHAR DownTriangle
ENCODING 245
SWIDTH 699 0
DWIDTH 11 0
BBX 9 9 1 0
BITMAP
ff80
4100
4100
2200
2200
1400
1400
0800
0800
ENDCHAR
STARTCHAR SolidDiamond
ENCODING 246
SWIDTH 500 0
DWIDTH 8 0
BBX 7 9 1 0
BITMAP
10
38
78
7c
fe
7c
78
38
10
ENDCHAR
STARTCHAR Star6
ENCODING 247
SWIDTH 600 0
DWIDTH 10 0
BBX 9 11 0 -2
BITMAP
0800
0800
1c00
ff80
7f00
7f00
7f00
ff80
1c00
0800
0800
ENDCHAR
STARTCHAR Star
ENCODING 248
SWIDTH 820 0
DWIDTH 13 0
BBX 11 9 1 0
BITMAP
0400
0400
0400
ffe0
3f80
1f00
1f00
1b00
3080
ENDCHAR
STARTCHAR Bullet3
ENCODING 249
SWIDTH 676 0
DWIDTH 11 0
BBX 10 10 0 0
BITMAP
ffc0
ffc0
ffc0
ffc0
ffc0
ffc0
ff40
fe40
fc40
ffc0
ENDCHAR
STARTCHAR Bullet4
ENCODING 250
SWIDTH 676 0
DWIDTH 11 0
BBX 10 10 0 0
BITMAP
ffc0
ffc0
ffc0
ffc0
ffc0
ffc0
fc40
fc40
fc40
ffc0
ENDCHAR
STARTCHAR Euler
ENCODING 251
SWIDTH 531 0
DWIDTH 9 0
BBX 7 11 1 0
BITMAP
38
44
c0
c0
c0
30
c0
c0
c0
c2
7c
ENDCHAR
STARTCHAR ImagJ
ENCODING 252
SWIDTH 387 0
DWIDTH 6 0
BBX 8 14 -2 -3
BITMAP
02
06
02
00
0f
0e
0e
0e
0a
1c
1c
1c
18
f8
ENDCHAR
STARTCHAR DoubleGamma
ENCODING 253
SWIDTH 580 0
DWIDTH 9 0
BBX 9 10 0 -3
BITMAP
7980
9d00
1f00
1e00
0c00
0c00
1800
3800
3800
7000
ENDCHAR
STARTCHAR DoublePi
ENCODING 254
SWIDTH 620 0
DWIDTH 10 0
BBX 10 7 0 0
BITMAP
7fc0
9900
3b00
2a00
3200
f300
e300
ENDCHAR
STARTCHAR DoubleScriptCapD
ENCODING 255
SWIDTH 855 0
DWIDTH 14 0
BBX 13 11 0 0
BITMAP
0380
3c70
2c38
2c18
3c18
3818
5838
5838
7870
b0e0
ff80
ENDCHAR
ENDFONT
